# xmcd CD database file
#
# Track frame offsets:
#	150
#	30130
#	54862
#	82625
#	106825
#	135392
#	164215
#	177755
#	209647
#
# Disc length: 3113 seconds
#
# Revision: 1
# Processed by: cddbd v1.5.1PL0 Copyright (c) Steve Scherf et al.
# Submitted via: CD2WAV32(JP) R3.22
#
DISCID=650c2709
DTITLE=布川俊樹・VALIS - UNDER CONSTRUCTION
DYEAR=1993
DGENRE=Jazz
TTITLE0=Fountain Fairy
TTITLE1=Rhythm Heat
TTITLE2=Rainbow Valley
TTITLE3=Under Construction
TTITLE4=Secret Secretary
TTITLE5=Echoes Of Silence
TTITLE6=Fake Jazz
TTITLE7=El Dorado
TTITLE8=Your Song
EXTD=
EXTT0=
EXTT1=
EXTT2=
EXTT3=
EXTT4=
EXTT5=
EXTT6=
EXTT7=
EXTT8=
PLAYORDER=
